<?xml version="1.0" standalone="no"?>
<!DOCTYPE svg PUBLIC "-//W3C//DTD SVG 20010904//EN"
 "http://www.w3.org/TR/2001/REC-SVG-20010904/DTD/svg10.dtd">
<svg version="1.0" xmlns="http://www.w3.org/2000/svg"
 width="1280.000000pt" height="1021.000000pt" viewBox="0 0 1280.000000 1021.000000"
 preserveAspectRatio="xMidYMid meet">
<g transform="translate(0.000000,1021.000000) scale(0.100000,-0.100000)"
fill="#000000" stroke="none">
<path d="M1089 10201 c-9 -6 -53 -13 -98 -17 -45 -4 -84 -11 -87 -15 -3 -5
-12 -9 -21 -9 -42 0 -253 -172 -253 -206 0 -8 -3 -14 -8 -14 -6 0 -24 -31 -63
-112 -14 -29 -38 -143 -45 -214 -5 -51 -14 -81 -36 -116 -16 -26 -33 -48 -38
-50 -5 -2 -37 -28 -71 -58 -34 -30 -79 -70 -100 -88 -58 -51 -98 -180 -98
-312 0 -81 8 -131 34 -225 9 -33 21 -89 25 -125 10 -76 26 -154 46 -226 19
-68 18 -100 -4 -116 -10 -7 -22 -26 -26 -42 -4 -16 -22 -47 -41 -70 -70 -86
-95 -163 -101 -306 -3 -61 -7 -95 -33 -290 -15 -111 -13 -303 4 -405 44 -259
55 -369 62 -617 4 -147 2 -202 -10 -255 -8 -37 -20 -93 -26 -123 -5 -31 -13
-332 -17 -700 -7 -690 -6 -678 -62 -885 -11 -42 -16 -98 -15 -186 1 -141 12
-178 62 -204 16 -8 39 -27 51 -42 12 -16 42 -45 67 -65 37 -31 53 -38 89 -38
31 0 61 -9 97 -30 61 -34 72 -35 147 -11 l55 18 0 52 c0 40 3 51 16 51 28 0
37 22 48 122 16 143 -11 365 -51 413 -4 5 -8 20 -8 34 0 13 -25 76 -55 138
l-55 114 0 164 c0 90 4 166 8 169 5 3 12 44 16 91 6 83 14 129 42 230 37 140
61 268 69 370 6 72 13 117 45 275 5 25 14 116 20 203 5 87 14 165 18 173 6 11
18 -4 43 -58 38 -82 44 -147 22 -273 -7 -38 -20 -119 -29 -180 -9 -60 -21
-121 -26 -135 -6 -14 -14 -56 -18 -95 -4 -38 -12 -91 -18 -117 -7 -27 -17 -69
-24 -95 -7 -30 -13 -172 -15 -378 -4 -295 -2 -341 15 -435 22 -116 38 -182 51
-208 4 -9 17 -35 27 -57 10 -22 21 -42 24 -45 14 -14 50 -70 50 -79 0 -10 39
-74 62 -102 7 -8 22 -31 32 -50 10 -19 27 -43 36 -54 10 -11 23 -31 30 -44 7
-14 17 -30 21 -35 17 -21 141 -211 150 -231 12 -24 23 -43 72 -118 20 -31 37
-66 37 -78 0 -11 6 -22 14 -25 7 -3 28 -28 47 -57 18 -29 50 -79 71 -111 21
-33 38 -68 38 -77 0 -10 9 -20 19 -24 11 -3 27 -22 37 -43 9 -20 31 -55 49
-77 39 -50 111 -182 120 -223 3 -17 13 -33 21 -36 19 -7 19 -56 -1 -56 -9 0
-18 -6 -21 -14 -3 -8 -21 -22 -40 -31 -19 -9 -34 -20 -34 -25 0 -6 -5 -10 -12
-10 -7 0 -22 -12 -34 -27 -11 -15 -43 -38 -69 -52 -33 -18 -51 -34 -56 -53 -6
-24 -122 -148 -138 -148 -3 0 -16 -17 -27 -38 -12 -20 -57 -75 -100 -121 -44
-46 -83 -91 -88 -100 -16 -28 -110 -141 -204 -245 -41 -45 -85 -98 -98 -118
-13 -21 -31 -38 -38 -38 -8 0 -17 -8 -20 -17 -3 -10 -26 -40 -51 -68 -25 -27
-47 -57 -50 -67 -4 -9 -22 -27 -41 -39 -19 -11 -43 -37 -52 -57 -20 -44 -46
-51 -192 -51 -65 -1 -102 -5 -116 -15 -11 -8 -31 -16 -44 -18 -34 -4 -67 -71
-76 -155 -3 -36 -1 -156 5 -267 7 -110 16 -302 21 -426 6 -124 15 -250 21
-280 5 -30 31 -98 57 -150 42 -84 61 -109 169 -218 133 -135 147 -142 241
-125 41 8 45 11 65 63 19 50 21 75 22 260 0 199 1 206 25 251 83 153 100 191
100 224 0 29 5 37 26 45 23 9 25 14 22 57 -3 44 -5 47 -35 55 l-33 9 28 50
c15 27 36 67 47 88 11 21 30 52 43 69 23 32 23 32 117 32 72 0 97 4 109 16 9
8 16 20 16 26 0 5 13 29 29 53 16 24 41 72 57 107 15 34 33 68 39 73 6 6 15
22 18 37 7 25 31 54 88 104 13 11 33 32 45 45 12 13 31 32 43 41 11 10 21 26
21 36 0 31 96 139 135 152 19 6 35 18 35 26 0 8 16 30 37 50 44 44 53 35 53
-57 0 -36 4 -79 10 -95 5 -16 15 -92 20 -169 12 -159 34 -356 49 -430 26 -131
34 -164 47 -211 10 -36 14 -107 14 -243 l0 -191 25 -10 c30 -12 32 -26 4 -35
-17 -6 -20 -15 -20 -63 0 -32 -2 -140 -5 -242 -3 -102 -3 -194 0 -205 9 -34
113 -53 326 -61 110 -3 201 -11 224 -19 31 -11 119 -12 465 -4 234 4 446 11
470 15 52 7 91 23 91 38 0 5 12 27 26 48 35 50 37 128 4 163 -25 27 -103 54
-225 80 -96 21 -165 46 -211 77 -40 27 -42 35 -11 40 26 4 37 46 15 62 -14 12
-38 73 -38 98 0 20 -29 45 -60 53 -18 4 -44 -3 -85 -24 -33 -17 -63 -31 -66
-31 -3 0 -23 13 -44 30 -49 39 -98 40 -136 4 -31 -30 -42 -26 -66 19 -16 29
-18 84 -24 537 -3 278 -8 512 -12 520 -3 8 -8 207 -11 442 -3 359 -2 429 10
439 17 14 19 98 3 133 -10 22 -8 29 15 56 27 32 34 81 16 110 -5 8 -5 19 -1
25 16 20 25 102 26 235 1 111 5 146 23 197 12 34 22 76 22 92 0 16 5 42 11 58
11 29 24 152 39 373 11 173 11 689 -1 780 -5 41 -13 109 -17 150 -5 41 -14 85
-20 97 -7 12 -12 37 -12 57 0 34 -56 220 -85 283 -8 17 -15 36 -15 42 0 6 -9
37 -20 68 -11 32 -20 82 -21 113 0 30 -4 78 -10 105 -5 28 -13 95 -19 150 -19
200 -32 281 -53 330 -18 43 -21 71 -23 205 -1 120 -5 165 -18 199 -18 48 -36
168 -28 189 3 8 29 -10 71 -51 91 -88 199 -155 301 -187 25 -7 52 -19 60 -26
8 -6 38 -19 65 -29 28 -9 70 -30 94 -46 25 -16 48 -29 52 -29 4 0 45 -17 91
-38 46 -22 108 -47 138 -56 49 -16 75 -26 145 -56 11 -5 49 -18 85 -30 36 -11
74 -25 85 -30 11 -5 43 -16 70 -24 55 -18 99 -45 192 -121 61 -49 62 -50 56
-91 -5 -36 -3 -43 15 -48 11 -4 23 -13 26 -21 3 -8 14 -15 23 -15 10 0 26 -9
36 -20 9 -11 28 -20 41 -20 14 0 28 -4 31 -10 3 -5 24 -10 46 -10 37 0 84 -21
101 -45 4 -5 8 -25 8 -43 0 -22 6 -35 18 -39 30 -11 52 -35 52 -60 0 -18 5
-23 24 -23 14 0 56 -16 95 -35 64 -32 76 -35 160 -35 77 0 99 4 146 26 84 40
135 110 159 216 6 26 8 27 34 16 15 -7 36 -20 48 -30 11 -10 28 -18 38 -18 25
0 99 -21 111 -32 5 -4 18 -8 28 -8 10 0 31 -6 45 -14 57 -29 104 -46 127 -46
16 0 25 -6 25 -15 0 -8 8 -15 18 -15 29 0 112 -29 222 -77 36 -16 106 -42 155
-57 50 -15 104 -34 120 -41 17 -7 53 -21 80 -30 63 -21 81 -28 128 -49 21 -9
46 -16 57 -16 11 0 25 -9 32 -20 7 -11 22 -20 34 -20 12 0 24 -6 27 -14 3 -8
26 -16 54 -19 71 -7 102 -16 158 -42 88 -41 119 -53 185 -75 36 -12 87 -33
113 -46 27 -13 55 -24 62 -24 8 0 19 -8 24 -19 7 -13 26 -20 66 -25 31 -3 70
-13 85 -21 16 -8 38 -15 50 -15 11 0 28 -4 38 -9 60 -32 105 -51 122 -51 10 0
21 -4 24 -9 4 -5 24 -12 46 -16 22 -4 40 -11 40 -16 0 -5 7 -9 17 -9 9 0 45
-14 80 -30 34 -17 72 -30 83 -30 10 0 36 -7 57 -16 21 -9 52 -23 68 -30 17 -7
64 -25 105 -39 41 -15 103 -40 137 -56 35 -16 67 -29 72 -29 5 0 22 -7 37 -15
16 -8 36 -15 45 -15 9 0 19 -9 22 -20 3 -13 13 -20 29 -19 52 1 109 -14 119
-32 7 -14 21 -19 49 -19 22 0 40 -4 40 -10 0 -5 8 -10 18 -10 10 0 27 -7 38
-15 10 -8 28 -15 38 -15 10 0 48 -14 83 -30 34 -17 72 -30 82 -30 11 0 23 -4
26 -10 3 -5 19 -10 35 -10 16 0 31 -4 34 -9 3 -4 34 -18 68 -30 35 -12 75 -28
90 -36 14 -8 35 -15 45 -15 10 0 23 -4 29 -8 11 -9 102 -45 159 -62 22 -7 47
-16 55 -21 8 -5 22 -12 30 -15 8 -3 31 -12 50 -19 19 -8 73 -28 120 -46 47
-18 90 -36 95 -40 6 -4 27 -10 48 -14 20 -4 40 -11 43 -16 3 -5 18 -9 34 -9
16 0 32 -4 35 -10 8 -13 93 -50 115 -50 10 0 31 -6 47 -14 15 -7 44 -20 63
-28 19 -9 46 -20 60 -26 14 -6 34 -13 45 -16 33 -8 108 -36 151 -56 23 -10 55
-22 70 -26 16 -3 65 -24 109 -45 43 -22 89 -39 102 -39 12 0 26 -6 30 -14 9
-15 65 -46 85 -46 7 0 24 -9 36 -18 24 -18 24 -19 -61 -32 -56 -8 -111 -10
-159 -6 -40 4 -179 12 -308 16 -235 8 -235 8 -490 64 -320 71 -396 79 -685 70
-164 -4 -242 -3 -274 6 -36 9 -68 8 -195 -10 -83 -12 -185 -31 -226 -42 -41
-11 -93 -24 -115 -29 -21 -6 -45 -15 -52 -21 -7 -5 -49 -14 -94 -19 -44 -5
-108 -19 -142 -30 -65 -23 -168 -41 -327 -60 -74 -9 -112 -9 -165 0 -39 7
-128 16 -200 21 -141 8 -280 33 -304 53 -36 30 -150 90 -288 152 -82 37 -169
80 -195 95 -26 16 -62 36 -80 45 -39 18 -93 48 -110 63 -7 6 -33 18 -58 27
-90 34 -165 45 -310 45 -125 0 -150 -3 -180 -19 -19 -11 -49 -27 -66 -35 -29
-14 -31 -18 -24 -53 13 -70 70 -163 101 -163 24 0 96 -64 116 -104 8 -17 30
-47 49 -66 24 -26 36 -50 44 -89 15 -81 41 -115 124 -161 41 -22 87 -43 104
-46 18 -4 37 -13 43 -20 6 -8 25 -14 41 -14 20 0 38 -10 57 -30 21 -24 42 -33
97 -44 69 -13 93 -26 208 -116 21 -16 45 -30 53 -30 8 0 28 -14 43 -30 23 -24
40 -32 82 -37 29 -3 67 -14 84 -24 17 -11 49 -19 70 -19 22 0 73 -6 114 -14
41 -8 114 -17 163 -21 l87 -7 -1 -197 c0 -108 -5 -284 -11 -391 -15 -294 -14
-321 5 -357 17 -32 17 -33 -10 -63 -16 -17 -57 -50 -93 -73 -54 -35 -70 -52
-95 -102 -17 -33 -54 -94 -82 -135 -29 -43 -54 -92 -58 -115 -4 -22 -17 -50
-28 -63 -19 -20 -22 -40 -29 -177 -3 -84 -11 -171 -17 -192 -36 -137 -54 -437
-32 -521 8 -27 29 -56 70 -96 l60 -56 163 6 c189 8 207 12 209 51 6 106 -10
158 -65 227 -81 99 -80 94 -74 224 5 95 11 129 32 182 35 86 82 155 166 243
58 62 85 81 182 130 62 31 136 62 163 69 28 7 63 23 79 36 39 31 92 52 132 52
30 0 34 -4 46 -41 9 -31 20 -45 46 -58 l34 -16 -6 -77 c-4 -43 -11 -89 -16
-104 -14 -37 -11 -173 4 -214 47 -119 63 -151 115 -224 32 -45 66 -94 74 -111
13 -26 48 -61 170 -169 16 -15 27 -35 27 -51 0 -14 5 -35 10 -46 10 -17 22
-19 148 -18 75 0 218 4 316 8 201 10 212 14 202 79 -6 43 -55 120 -81 128 -11
3 -37 17 -57 31 -25 17 -60 28 -108 34 -121 15 -232 100 -320 245 -31 51 -32
57 -32 161 0 187 33 265 169 400 46 46 83 89 83 96 0 20 71 125 119 176 22 24
41 48 41 53 0 4 13 8 30 8 19 0 34 7 42 20 17 27 32 25 46 -5 6 -14 16 -25 21
-25 18 0 41 -31 41 -55 0 -20 6 -24 48 -28 78 -8 106 -18 132 -47 17 -17 41
-29 70 -34 29 -4 56 -18 82 -41 21 -19 59 -45 86 -58 66 -32 155 -100 188
-142 16 -21 39 -39 56 -42 48 -10 58 -35 58 -155 l0 -108 29 0 c17 0 33 5 36
10 9 14 86 53 92 46 3 -3 7 -33 10 -68 4 -46 -2 -93 -21 -175 -27 -117 -33
-220 -15 -254 5 -11 21 -24 35 -29 17 -7 24 -17 24 -35 0 -23 3 -25 52 -25 37
0 63 7 95 26 l44 25 15 -36 c8 -20 19 -58 24 -84 9 -46 36 -116 66 -171 8 -14
23 -46 35 -72 12 -26 27 -49 35 -52 8 -3 74 -10 146 -16 73 -6 149 -16 168
-22 49 -16 123 -10 183 13 85 33 96 67 51 157 -33 67 -119 127 -196 137 -99
12 -116 22 -128 68 -6 23 -13 49 -16 57 -3 8 -12 47 -20 85 -14 73 -7 136 31
295 8 30 18 75 23 100 6 25 27 88 47 140 20 52 42 115 48 139 7 28 21 51 39
64 15 11 28 29 28 39 0 15 8 18 49 18 l48 0 8 -72 c4 -50 17 -96 40 -145 39
-84 134 -248 168 -289 23 -29 77 -148 96 -214 5 -19 15 -71 21 -115 15 -103
22 -115 65 -115 63 0 96 42 129 162 9 31 20 59 25 62 11 7 28 -13 50 -57 14
-29 21 -32 66 -35 41 -3 60 -12 115 -52 36 -27 73 -58 82 -69 9 -11 34 -23 55
-26 21 -4 68 -25 105 -46 36 -21 74 -39 83 -39 27 0 89 -30 116 -56 24 -23 28
-24 85 -13 101 18 223 58 245 82 43 45 69 96 69 137 0 38 -2 40 -52 64 -29 13
-88 34 -131 47 -66 20 -91 35 -162 94 -93 77 -135 129 -192 231 -43 80 -96
152 -288 398 -22 28 -55 80 -74 116 -37 72 -92 228 -82 234 3 2 18 6 33 10 17
4 34 18 44 39 9 17 27 43 40 58 25 26 86 168 99 229 9 41 28 82 49 103 12 11
25 13 65 5 82 -15 116 0 204 91 61 62 77 85 77 108 0 31 37 89 84 133 l27 25
32 -37 c33 -38 172 -138 192 -138 6 0 22 -11 35 -25 29 -31 43 -31 69 -4 15
17 36 23 90 27 64 4 70 3 83 -18 26 -43 160 -86 193 -62 6 4 17 26 24 49 11
32 11 49 2 74 -6 17 -11 44 -11 58 0 26 -29 61 -51 61 -5 0 -8 4 -4 9 3 6 27
13 53 17 72 10 83 17 160 95 70 70 72 74 72 122 0 44 -4 53 -42 93 -47 49 -67
81 -68 105 0 10 -15 20 -38 27 -37 11 -95 68 -144 141 -20 29 -23 72 -7 88 6
6 10 43 10 82 0 61 -5 80 -32 132 -75 140 -188 226 -411 315 -48 18 -105 34
-127 34 -22 0 -100 -13 -173 -29 -73 -16 -173 -35 -222 -41 -49 -6 -101 -17
-115 -24 -44 -23 -129 -35 -321 -46 -102 -6 -228 -19 -280 -30 -119 -25 -129
-25 -209 1 -102 33 -129 47 -156 83 -22 29 -33 34 -85 40 -45 5 -62 12 -70 26
-6 11 -21 20 -33 20 -12 0 -51 9 -87 20 -36 11 -75 20 -86 20 -12 0 -27 6 -33
14 -7 8 -30 17 -52 21 -21 4 -41 11 -45 16 -3 5 -18 9 -33 9 -15 0 -31 4 -37
8 -5 4 -36 18 -69 31 -33 12 -68 27 -77 32 -10 5 -25 9 -34 9 -9 0 -31 8 -48
18 -17 10 -71 31 -121 47 -90 28 -119 39 -185 68 -19 8 -57 22 -85 30 -77 25
-139 48 -150 57 -5 4 -23 10 -40 13 -30 5 -74 19 -130 43 -56 23 -110 43 -150
55 -22 6 -51 17 -65 24 -14 7 -53 22 -88 34 -34 12 -70 25 -80 30 -9 5 -28 14
-42 20 -14 6 -32 15 -40 20 -8 5 -42 15 -75 22 -33 7 -69 18 -80 25 -11 7 -47
20 -80 29 -33 10 -64 21 -69 26 -6 5 -21 9 -35 9 -15 0 -35 7 -45 15 -11 8
-27 15 -37 15 -9 0 -19 9 -22 20 -4 15 -14 20 -41 20 -20 0 -53 7 -74 16 -20
9 -50 20 -67 24 -16 5 -55 18 -85 30 -30 12 -64 24 -75 27 -11 2 -29 9 -40 13
-99 42 -120 50 -136 50 -10 0 -21 4 -24 10 -3 6 -14 10 -24 10 -9 0 -44 14
-76 30 -32 17 -66 30 -74 30 -9 0 -25 7 -35 15 -11 8 -32 15 -47 15 -15 0 -30
4 -34 9 -3 5 -19 12 -35 16 -17 4 -30 13 -30 21 0 9 -11 14 -35 14 -18 0 -38
6 -42 14 -4 7 -43 21 -86 31 -42 9 -80 21 -83 26 -3 5 -18 9 -33 9 -16 0 -34
7 -41 15 -7 8 -20 15 -30 15 -10 0 -23 7 -30 15 -7 8 -27 15 -46 15 -18 0 -35
4 -39 9 -3 5 -20 13 -37 17 -18 3 -39 10 -48 14 -8 4 -31 14 -50 22 -19 8 -52
23 -73 32 -21 9 -43 16 -49 16 -6 0 -19 6 -27 13 -9 7 -43 22 -76 32 -33 11
-64 23 -69 27 -6 4 -16 8 -24 8 -8 0 -30 7 -50 16 -86 37 -99 42 -129 48 -18
4 -35 12 -38 17 -4 5 -16 9 -27 9 -22 0 -70 14 -123 35 -16 7 -52 21 -80 30
-27 10 -54 22 -60 25 -5 4 -35 15 -65 25 -30 10 -62 26 -70 34 -8 9 -44 22
-80 30 -36 7 -70 17 -77 23 -7 5 -29 14 -50 20 -21 5 -56 14 -78 19 -21 6 -44
14 -50 18 -5 5 -41 19 -78 31 -37 13 -70 27 -73 31 -3 5 -16 9 -29 9 -13 0
-36 6 -52 14 -41 21 -81 37 -147 60 -55 20 -59 24 -73 66 -8 25 -21 52 -28 60
-6 8 -15 23 -18 33 -4 9 -11 17 -17 17 -5 0 -10 7 -10 15 0 25 -54 92 -113
140 -29 25 -57 45 -61 45 -4 0 -20 15 -36 33 -22 25 -44 37 -87 47 -32 8 -64
22 -71 32 -7 10 -32 28 -55 40 -54 27 -228 35 -272 12 -24 -12 -35 -12 -89 2
-57 16 -185 69 -232 97 -238 139 -357 216 -408 265 -23 22 -63 56 -91 77 -27
20 -57 45 -65 56 -20 24 -121 86 -245 150 -186 95 -205 111 -278 229 -35 58
-70 116 -77 130 -7 14 -28 42 -46 62 -35 40 -132 225 -154 293 -6 22 -34 88
-61 147 -27 59 -49 113 -49 121 0 8 -9 22 -20 32 -11 10 -20 24 -20 31 0 13
-28 48 -86 107 -49 50 -64 60 -130 88 -34 15 -75 36 -92 47 -36 26 -123 58
-182 67 -41 7 -214 65 -250 84 -22 12 -26 187 -6 235 l15 36 96 0 c116 0 142
12 180 81 109 201 109 710 0 1020 -8 23 -15 59 -15 81 0 25 -5 41 -15 44 -8 4
-15 12 -15 20 0 7 -8 18 -17 23 -10 5 -43 33 -75 63 -74 70 -96 88 -108 88 -5
0 -45 16 -87 36 -117 55 -294 89 -334 65z m-316 -1385 c6 -16 -2 -28 -14 -20
-12 7 -11 34 0 34 5 0 11 -6 14 -14z"/>
</g>
</svg>
